<svg width="512" height="512" viewBox="0 0 512 512" fill="none" xmlns="http://www.w3.org/2000/svg">
<g filter="url(#filter0_d_101_15)">
<path d="M130.228 412.205C105.161 412.205 82.8351 409.353 63.2511 403.648C43.6671 397.942 29.1749 391.667 19.7746 384.821C-2.07512 369.187 12.776 330.108 41.5128 345.455C49.3464 349.639 60.7051 354.583 75.589 360.289C90.4728 365.994 108.686 368.846 130.228 368.846C145.112 368.846 158.233 366.184 169.592 360.859C181.343 355.154 190.547 347.167 197.206 336.898C203.864 326.628 207.194 314.838 207.194 301.526C207.194 286.312 202.885 274.141 194.268 265.013C186.043 255.504 175.076 247.707 161.367 241.622C148.05 235.536 133.753 229.641 118.478 223.936C105.944 219.372 93.6063 214.427 81.4642 209.103C69.3221 203.398 58.3551 196.551 48.5631 188.564C38.7711 180.577 30.9375 170.498 25.0623 158.327C19.1871 145.776 16.2495 130.182 16.2495 111.545C16.2495 91.0064 21.5371 72.75 32.1125 56.7756C43.0795 40.8013 58.3551 28.4402 77.9391 19.6923C97.5231 10.5641 120.436 6 146.679 6C154.904 6 164.109 6.76069 174.292 8.28206C184.868 9.80343 195.051 12.0855 204.843 15.1282C215.027 18.1709 223.252 21.7842 229.519 25.968C265.086 44.0006 243.009 81.8669 206.606 64.1923C200.339 61.1496 192.31 57.9167 182.518 54.4936C172.726 51.0705 160.388 49.359 145.504 49.359C131.012 49.359 117.89 51.8312 106.14 56.7756C94.7813 61.7201 85.7727 68.9466 79.1141 78.4551C72.8472 87.9637 69.7138 99.7543 69.7138 113.827C69.7138 127.519 73.4347 138.359 80.8767 146.346C88.3186 154.333 98.1106 160.989 110.253 166.314C122.395 171.259 135.516 176.393 149.617 181.718C162.542 186.662 175.467 192.177 188.393 198.263C201.71 203.968 213.852 211.195 224.819 219.942C235.786 228.69 244.403 239.72 250.67 253.032C257.329 265.964 260.658 282.128 260.658 301.526C260.658 318.641 257.524 334.045 251.258 347.737C245.382 361.43 236.57 373.03 224.819 382.539C213.46 392.047 199.752 399.464 183.693 404.789C168.025 409.733 150.204 412.205 130.228 412.205Z" fill="#E7FEF1"/>
<path d="M312.374 481.03V153.787H199.57C165.739 153.787 165.739 110.428 199.57 110.428H475.117C511.877 110.428 511.877 153.787 475.117 153.787H364.076V481.03C364.076 514.716 312.374 513.928 312.374 481.03Z" fill="#E7FEF1"/>
</g>
<defs>
<filter id="filter0_d_101_15" x="-54.6867" y="-58" width="621.373" height="628" filterUnits="userSpaceOnUse" color-interpolation-filters="sRGB">
<feFlood flood-opacity="0" result="BackgroundImageFix"/>
<feColorMatrix in="SourceAlpha" type="matrix" values="0 0 0 0 0 0 0 0 0 0 0 0 0 0 0 0 0 0 127 0" result="hardAlpha"/>
<feOffset/>
<feGaussianBlur stdDeviation="32"/>
<feComposite in2="hardAlpha" operator="out"/>
<feColorMatrix type="matrix" values="0 0 0 0 0.0431373 0 0 0 0 0.219608 0 0 0 0 0.4 0 0 0 0.25 0"/>
<feBlend mode="normal" in2="BackgroundImageFix" result="effect1_dropShadow_101_15"/>
<feBlend mode="normal" in="SourceGraphic" in2="effect1_dropShadow_101_15" result="shape"/>
</filter>
</defs>
</svg>
