<svg width="512" height="512" viewBox="0 0 512 512" fill="none" xmlns="http://www.w3.org/2000/svg">
<g clip-path="url(#clip0_1_2)">
<g filter="url(#filter0_i_1_2)">
<rect width="512" height="512" rx="140" fill="url(#paint0_linear_1_2)"/>
<g filter="url(#filter1_d_1_2)">
<path d="M187.981 359.994C172.085 359.994 157.927 358.185 145.508 354.567C133.089 350.949 123.899 346.969 117.938 342.628C104.082 332.714 113.5 307.932 131.723 317.665C136.691 320.318 143.894 323.453 153.332 327.071C162.771 330.689 174.32 332.498 187.981 332.498C197.42 332.498 205.741 330.81 212.944 327.433C220.395 323.815 226.232 318.75 230.454 312.238C234.677 305.726 236.788 298.249 236.788 289.807C236.788 280.16 234.056 272.441 228.591 266.653C223.376 260.623 216.421 255.679 207.728 251.82C199.283 247.961 190.217 244.222 180.53 240.604C172.582 237.71 164.758 234.575 157.058 231.198C149.358 227.58 142.404 223.239 136.194 218.174C129.985 213.109 125.017 206.717 121.291 198.999C117.565 191.04 115.703 181.151 115.703 169.333C115.703 156.308 119.056 144.731 125.762 134.601C132.717 124.471 142.404 116.632 154.823 111.085C167.242 105.297 181.772 102.402 198.413 102.402C203.629 102.402 209.466 102.885 215.924 103.849C222.63 104.814 229.088 106.261 235.298 108.191C241.756 110.12 246.972 112.412 250.946 115.065C273.5 126.5 259.5 150.513 236.415 139.304C232.441 137.375 227.35 135.325 221.14 133.154C214.931 130.983 207.107 129.898 197.668 129.898C188.478 129.898 180.157 131.466 172.706 134.601C165.503 137.737 159.79 142.319 155.568 148.349C151.594 154.379 149.607 161.856 149.607 170.78C149.607 179.463 151.966 186.337 156.685 191.402C161.405 196.467 167.614 200.687 175.314 204.064C183.014 207.199 191.334 210.456 200.276 213.832C208.473 216.968 216.669 220.465 224.866 224.324C233.311 227.942 241.011 232.524 247.965 238.072C254.92 243.619 260.384 250.614 264.358 259.055C268.581 267.256 270.692 277.506 270.692 289.807C270.692 300.661 268.705 310.429 264.731 319.112C261.005 327.795 255.417 335.151 247.965 341.181C240.762 347.21 232.069 351.914 221.885 355.29C211.95 358.426 200.649 359.994 187.981 359.994Z" fill="#E7FEF1"/>
<path d="M303.487 403.638V196.12H231.954C210.5 196.12 210.5 168.624 231.954 168.624H406.689C430 168.624 430 196.12 406.689 196.12H336.274V403.638C336.274 425 303.487 424.5 303.487 403.638Z" fill="#E7FEF1"/>
</g>
</g>
</g>
<defs>
<filter id="filter0_i_1_2" x="0" y="0" width="512" height="512" filterUnits="userSpaceOnUse" color-interpolation-filters="sRGB">
<feFlood flood-opacity="0" result="BackgroundImageFix"/>
<feBlend mode="normal" in="SourceGraphic" in2="BackgroundImageFix" result="shape"/>
<feColorMatrix in="SourceAlpha" type="matrix" values="0 0 0 0 0 0 0 0 0 0 0 0 0 0 0 0 0 0 127 0" result="hardAlpha"/>
<feOffset/>
<feGaussianBlur stdDeviation="48"/>
<feComposite in2="hardAlpha" operator="arithmetic" k2="-1" k3="1"/>
<feColorMatrix type="matrix" values="0 0 0 0 0.584314 0 0 0 0 0.976471 0 0 0 0 0.764706 0 0 0 0.1 0"/>
<feBlend mode="normal" in2="shape" result="effect1_innerShadow_1_2"/>
</filter>
<filter id="filter1_d_1_2" x="47.3041" y="38.4023" width="440.868" height="445.07" filterUnits="userSpaceOnUse" color-interpolation-filters="sRGB">
<feFlood flood-opacity="0" result="BackgroundImageFix"/>
<feColorMatrix in="SourceAlpha" type="matrix" values="0 0 0 0 0 0 0 0 0 0 0 0 0 0 0 0 0 0 127 0" result="hardAlpha"/>
<feOffset/>
<feGaussianBlur stdDeviation="32"/>
<feComposite in2="hardAlpha" operator="out"/>
<feColorMatrix type="matrix" values="0 0 0 0 0.0431373 0 0 0 0 0.219608 0 0 0 0 0.4 0 0 0 0.25 0"/>
<feBlend mode="normal" in2="BackgroundImageFix" result="effect1_dropShadow_1_2"/>
<feBlend mode="normal" in="SourceGraphic" in2="effect1_dropShadow_1_2" result="shape"/>
</filter>
<linearGradient id="paint0_linear_1_2" x1="248.5" y1="-2.02122e-07" x2="256" y2="517" gradientUnits="userSpaceOnUse">
<stop stop-color="#2DD29B"/>
<stop offset="1" stop-color="#05272E"/>
</linearGradient>
<clipPath id="clip0_1_2">
<rect width="512" height="512" fill="white"/>
</clipPath>
</defs>
</svg>
