<svg width="2081" height="512" viewBox="0 0 2081 512" fill="none" xmlns="http://www.w3.org/2000/svg">
<g clip-path="url(#clip0_102_31)">
<g filter="url(#filter0_i_102_31)">
<rect width="512" height="512" rx="140" fill="url(#paint0_linear_102_31)"/>
<g filter="url(#filter1_d_102_31)">
<path d="M187.981 359.994C172.085 359.994 157.927 358.185 145.508 354.567C133.089 350.949 123.899 346.969 117.938 342.628C104.082 332.714 113.5 307.932 131.723 317.665C136.691 320.318 143.894 323.453 153.332 327.071C162.771 330.689 174.32 332.498 187.981 332.498C197.42 332.498 205.741 330.81 212.944 327.433C220.395 323.815 226.232 318.75 230.454 312.238C234.677 305.726 236.788 298.249 236.788 289.807C236.788 280.16 234.056 272.441 228.591 266.653C223.376 260.623 216.421 255.679 207.728 251.82C199.283 247.961 190.217 244.222 180.53 240.604C172.582 237.71 164.758 234.575 157.058 231.198C149.358 227.58 142.404 223.239 136.194 218.174C129.985 213.109 125.017 206.717 121.291 198.999C117.565 191.04 115.703 181.151 115.703 169.333C115.703 156.308 119.056 144.731 125.762 134.601C132.717 124.471 142.404 116.632 154.823 111.085C167.242 105.297 181.772 102.402 198.413 102.402C203.629 102.402 209.466 102.885 215.924 103.849C222.63 104.814 229.088 106.261 235.298 108.191C241.756 110.12 246.972 112.412 250.946 115.065C273.5 126.5 259.5 150.513 236.415 139.304C232.441 137.375 227.35 135.325 221.14 133.154C214.931 130.983 207.107 129.898 197.668 129.898C188.478 129.898 180.157 131.466 172.706 134.601C165.503 137.737 159.79 142.319 155.568 148.349C151.594 154.379 149.607 161.856 149.607 170.78C149.607 179.463 151.966 186.336 156.685 191.401C161.405 196.466 167.614 200.687 175.314 204.064C183.014 207.199 191.334 210.456 200.276 213.832C208.473 216.968 216.669 220.465 224.866 224.324C233.311 227.942 241.011 232.524 247.965 238.072C254.92 243.619 260.384 250.614 264.358 259.055C268.581 267.256 270.692 277.506 270.692 289.807C270.692 300.661 268.705 310.429 264.731 319.112C261.005 327.795 255.417 335.151 247.965 341.181C240.762 347.21 232.069 351.914 221.885 355.29C211.95 358.426 200.649 359.994 187.981 359.994Z" fill="#E7FEF1"/>
<path d="M303.487 403.638V196.12H231.954C210.5 196.12 210.5 168.624 231.954 168.624H406.689C430 168.624 430 196.12 406.689 196.12H336.274V403.638C336.274 425 303.487 424.5 303.487 403.638Z" fill="#E7FEF1"/>
</g>
</g>
</g>
<path d="M786.16 201.46C784.627 202.38 783.4 202.38 782.48 201.46C778.493 195.327 771.747 189.96 762.24 185.36C753.04 180.453 742.153 178 729.58 178C721.3 178 713.327 179.073 705.66 181.22C697.993 183.367 691.707 186.893 686.8 191.8C681.893 196.707 679.44 203.147 679.44 211.12C679.44 220.627 683.733 228.14 692.32 233.66C700.907 239.18 715.933 244.24 737.4 248.84C757.64 253.133 774.2 260.34 787.08 270.46C799.96 280.58 806.4 294.533 806.4 312.32C806.4 327.347 802.413 339.767 794.44 349.58C786.773 359.087 776.653 366.293 764.08 371.2C751.813 375.8 738.933 378.1 725.44 378.1C706.427 378.1 689.1 374.267 673.46 366.6C657.82 358.933 646.933 347.433 640.8 332.1C640.187 330.567 640.647 329.34 642.18 328.42L661.04 318.3C661.653 317.993 662.42 317.84 663.34 317.84C664.26 317.84 664.873 318.453 665.18 319.68C670.087 330.413 678.06 338.693 689.1 344.52C700.447 350.04 712.407 352.8 724.98 352.8C739.393 352.8 751.66 349.887 761.78 344.06C772.207 337.927 777.42 328.267 777.42 315.08C777.42 300.667 772.207 290.7 761.78 285.18C751.353 279.353 737.86 274.907 721.3 271.84C700.14 267.853 682.967 261.107 669.78 251.6C656.9 242.093 650.46 228.6 650.46 211.12C650.46 197.32 654.293 186.127 661.96 177.54C669.627 168.953 679.44 162.667 691.4 158.68C703.667 154.693 716.24 152.7 729.12 152.7C745.987 152.7 760.4 155.46 772.36 160.98C784.627 166.5 794.44 173.86 801.8 183.06C802.72 184.287 802.567 185.667 801.34 187.2L786.16 201.46Z" fill="#05272E"/>
<path d="M858.236 266.32C858.236 292.387 863.756 312.933 874.796 327.96C886.143 342.68 903.316 350.653 926.316 351.88C941.65 352.493 954.53 350.193 964.956 344.98C975.383 339.46 983.97 333.94 990.716 328.42C991.943 327.5 993.016 327.653 993.936 328.88L1005.44 347.28C1006.05 348.2 1005.9 349.12 1004.98 350.04C994.243 360.16 982.13 367.52 968.636 372.12C955.45 376.413 941.343 378.407 926.316 378.1C896.57 377.487 872.956 367.673 855.476 348.66C837.996 329.34 829.256 302.047 829.256 266.78C829.256 244.087 833.243 224.153 841.216 206.98C849.19 189.807 860.23 176.467 874.336 166.96C888.75 157.453 905.616 152.7 924.936 152.7C950.696 152.7 971.09 161.287 986.116 178.46C1001.14 195.327 1008.66 218.48 1008.66 247.92C1008.66 249.453 1008.66 251.14 1008.66 252.98C1008.66 254.513 1008.5 256.967 1008.2 260.34C1007.58 263.407 1006.05 264.94 1003.6 264.94L858.236 265.86C858.236 265.86 858.236 266.013 858.236 266.32ZM860.076 241.48L978.296 241.02C979.83 222.007 975.383 206.827 964.956 195.48C954.836 183.827 941.036 178 923.556 178C906.69 178 892.736 183.52 881.696 194.56C870.656 205.6 863.45 221.24 860.076 241.48Z" fill="#05272E"/>
<path d="M1056.83 312.32V184.9H1027.39C1025.55 184.9 1024.63 183.98 1024.63 182.14V162.36C1024.63 160.52 1025.55 159.6 1027.39 159.6H1056.83V116.36C1056.83 115.133 1057.29 114.367 1058.21 114.06L1083.97 107.16C1085.5 106.853 1086.27 107.62 1086.27 109.46V159.6H1152.97C1154.81 159.6 1155.73 160.52 1155.73 162.36V182.14C1155.73 183.98 1154.81 184.9 1152.97 184.9H1086.27L1086.73 313.24C1086.73 328.88 1090.1 339.307 1096.85 344.52C1103.9 349.427 1112.18 351.88 1121.69 351.88C1126.9 351.88 1133.19 350.96 1140.55 349.12C1148.22 347.28 1154.5 344.98 1159.41 342.22C1161.25 341.3 1162.48 341.76 1163.09 343.6L1169.53 363.38C1170.14 364.913 1169.68 365.987 1168.15 366.6C1159.56 370.587 1150.36 373.5 1140.55 375.34C1131.04 377.18 1122.46 378.1 1114.79 378.1C1098.23 378.1 1084.43 372.887 1073.39 362.46C1062.35 352.033 1056.83 335.32 1056.83 312.32Z" fill="#05272E"/>
<path d="M1203.85 312.32V184.9H1174.41C1172.57 184.9 1171.65 183.98 1171.65 182.14V162.36C1171.65 160.52 1172.57 159.6 1174.41 159.6H1203.85V116.36C1203.85 115.133 1204.31 114.367 1205.23 114.06L1230.99 107.16C1232.52 106.853 1233.29 107.62 1233.29 109.46V159.6H1299.99C1301.83 159.6 1302.75 160.52 1302.75 162.36V182.14C1302.75 183.98 1301.83 184.9 1299.99 184.9H1233.29L1233.75 313.24C1233.75 328.88 1237.12 339.307 1243.87 344.52C1250.92 349.427 1259.2 351.88 1268.71 351.88C1273.92 351.88 1280.21 350.96 1287.57 349.12C1295.24 347.28 1301.52 344.98 1306.43 342.22C1308.27 341.3 1309.5 341.76 1310.11 343.6L1316.55 363.38C1317.16 364.913 1316.7 365.987 1315.17 366.6C1306.58 370.587 1297.38 373.5 1287.57 375.34C1278.06 377.18 1269.48 378.1 1261.81 378.1C1245.25 378.1 1231.45 372.887 1220.41 362.46C1209.37 352.033 1203.85 335.32 1203.85 312.32Z" fill="#05272E"/>
<path d="M1374.33 368.9C1374.33 370.433 1373.56 371.2 1372.03 371.2H1348.11C1346.58 371.2 1345.81 370.433 1345.81 368.9V161.9C1345.81 160.367 1346.58 159.6 1348.11 159.6H1372.03C1373.56 159.6 1374.33 160.367 1374.33 161.9V368.9ZM1360.53 106.7C1353.17 106.7 1347.04 104.4 1342.13 99.8C1337.22 95.2 1334.77 89.68 1334.77 83.24C1334.77 76.1866 1337.22 70.36 1342.13 65.76C1347.04 60.8533 1353.17 58.4 1360.53 58.4C1367.58 58.4 1373.41 60.8533 1378.01 65.76C1382.92 70.36 1385.37 76.1866 1385.37 83.24C1385.37 89.68 1382.92 95.2 1378.01 99.8C1373.41 104.4 1367.58 106.7 1360.53 106.7Z" fill="#05272E"/>
<path d="M1466.55 389.6C1459.19 389.6 1453.05 387.147 1448.15 382.24C1443.24 377.333 1440.79 371.2 1440.79 363.84C1440.79 356.787 1443.24 350.96 1448.15 346.36C1453.05 341.453 1459.19 339 1466.55 339C1473.6 339 1479.43 341.453 1484.03 346.36C1488.93 350.96 1491.39 356.787 1491.39 363.84C1491.39 371.2 1488.93 377.333 1484.03 382.24C1479.43 387.147 1473.6 389.6 1466.55 389.6Z" fill="#05272E"/>
<path d="M1586.62 368.9C1586.62 370.433 1585.86 371.2 1584.32 371.2H1560.4C1558.87 371.2 1558.1 370.433 1558.1 368.9V161.9C1558.1 160.367 1558.87 159.6 1560.4 159.6H1579.72C1581.26 159.6 1582.02 160.367 1582.02 161.9L1585.7 187.66C1593.37 177.847 1603.18 169.567 1615.14 162.82C1627.41 156.073 1641.52 152.7 1657.46 152.7C1688.13 152.7 1708.22 166.04 1717.72 192.72C1725.39 181.68 1735.51 172.327 1748.08 164.66C1760.66 156.687 1775.68 152.7 1793.16 152.7C1814.94 152.7 1831.34 159.6 1842.38 173.4C1853.73 186.893 1859.4 206.827 1859.4 233.2V368.9C1859.4 370.433 1858.64 371.2 1857.1 371.2H1833.18C1831.65 371.2 1830.88 370.433 1830.88 368.9V234.12C1830.88 215.107 1827.05 201.153 1819.38 192.26C1812.02 183.367 1801.14 178.92 1786.72 178.92C1773.84 178.92 1761.73 182.6 1750.38 189.96C1739.34 197.32 1730.3 207.593 1723.24 220.78C1723.55 224.767 1723.7 228.907 1723.7 233.2V368.9C1723.7 370.433 1722.94 371.2 1721.4 371.2H1697.48C1695.95 371.2 1695.18 370.433 1695.18 368.9V234.12C1695.18 215.107 1691.35 201.153 1683.68 192.26C1676.32 183.367 1665.44 178.92 1651.02 178.92C1637.84 178.92 1625.42 182.753 1613.76 190.42C1602.42 198.087 1593.37 208.973 1586.62 223.08V368.9Z" fill="#05272E"/>
<path d="M1929.93 266.32C1929.93 292.387 1935.45 312.933 1946.49 327.96C1957.84 342.68 1975.01 350.653 1998.01 351.88C2013.34 352.493 2026.22 350.193 2036.65 344.98C2047.08 339.46 2055.66 333.94 2062.41 328.42C2063.64 327.5 2064.71 327.653 2065.63 328.88L2077.13 347.28C2077.74 348.2 2077.59 349.12 2076.67 350.04C2065.94 360.16 2053.82 367.52 2040.33 372.12C2027.14 376.413 2013.04 378.407 1998.01 378.1C1968.26 377.487 1944.65 367.673 1927.17 348.66C1909.69 329.34 1900.95 302.047 1900.95 266.78C1900.95 244.087 1904.94 224.153 1912.91 206.98C1920.88 189.807 1931.92 176.467 1946.03 166.96C1960.44 157.453 1977.31 152.7 1996.63 152.7C2022.39 152.7 2042.78 161.287 2057.81 178.46C2072.84 195.327 2080.35 218.48 2080.35 247.92C2080.35 249.453 2080.35 251.14 2080.35 252.98C2080.35 254.513 2080.2 256.967 2079.89 260.34C2079.28 263.407 2077.74 264.94 2075.29 264.94L1929.93 265.86C1929.93 265.86 1929.93 266.013 1929.93 266.32ZM1931.77 241.48L2049.99 241.02C2051.52 222.007 2047.08 206.827 2036.65 195.48C2026.53 183.827 2012.73 178 1995.25 178C1978.38 178 1964.43 183.52 1953.39 194.56C1942.35 205.6 1935.14 221.24 1931.77 241.48Z" fill="#05272E"/>
<defs>
<filter id="filter0_i_102_31" x="0" y="0" width="512" height="512" filterUnits="userSpaceOnUse" color-interpolation-filters="sRGB">
<feFlood flood-opacity="0" result="BackgroundImageFix"/>
<feBlend mode="normal" in="SourceGraphic" in2="BackgroundImageFix" result="shape"/>
<feColorMatrix in="SourceAlpha" type="matrix" values="0 0 0 0 0 0 0 0 0 0 0 0 0 0 0 0 0 0 127 0" result="hardAlpha"/>
<feOffset/>
<feGaussianBlur stdDeviation="48"/>
<feComposite in2="hardAlpha" operator="arithmetic" k2="-1" k3="1"/>
<feColorMatrix type="matrix" values="0 0 0 0 0.584314 0 0 0 0 0.976471 0 0 0 0 0.764706 0 0 0 0.1 0"/>
<feBlend mode="normal" in2="shape" result="effect1_innerShadow_102_31"/>
</filter>
<filter id="filter1_d_102_31" x="47.3041" y="38.4022" width="440.868" height="445.07" filterUnits="userSpaceOnUse" color-interpolation-filters="sRGB">
<feFlood flood-opacity="0" result="BackgroundImageFix"/>
<feColorMatrix in="SourceAlpha" type="matrix" values="0 0 0 0 0 0 0 0 0 0 0 0 0 0 0 0 0 0 127 0" result="hardAlpha"/>
<feOffset/>
<feGaussianBlur stdDeviation="32"/>
<feComposite in2="hardAlpha" operator="out"/>
<feColorMatrix type="matrix" values="0 0 0 0 0.0431373 0 0 0 0 0.219608 0 0 0 0 0.4 0 0 0 0.25 0"/>
<feBlend mode="normal" in2="BackgroundImageFix" result="effect1_dropShadow_102_31"/>
<feBlend mode="normal" in="SourceGraphic" in2="effect1_dropShadow_102_31" result="shape"/>
</filter>
<linearGradient id="paint0_linear_102_31" x1="248.5" y1="-2.02122e-07" x2="256" y2="517" gradientUnits="userSpaceOnUse">
<stop stop-color="#2DD29B"/>
<stop offset="1" stop-color="#05272E"/>
</linearGradient>
<clipPath id="clip0_102_31">
<rect width="512" height="512" fill="white"/>
</clipPath>
</defs>
</svg>
