<svg class="wordmark" width="108" height="24" viewBox="0 0 1441 332" fill="none" xmlns="http://www.w3.org/2000/svg">
<path d="M146.16 143.46C144.627 144.38 143.4 144.38 142.48 143.46C138.493 137.327 131.747 131.96 122.24 127.36C113.04 122.453 102.153 120 89.58 120C81.3 120 73.3267 121.073 65.66 123.22C57.9934 125.367 51.7067 128.893 46.8 133.8C41.8934 138.707 39.44 145.147 39.44 153.12C39.44 162.627 43.7334 170.14 52.32 175.66C60.9067 181.18 75.9334 186.24 97.4 190.84C117.64 195.133 134.2 202.34 147.08 212.46C159.96 222.58 166.4 236.533 166.4 254.32C166.4 269.347 162.413 281.767 154.44 291.58C146.773 301.087 136.653 308.293 124.08 313.2C111.813 317.8 98.9334 320.1 85.44 320.1C66.4267 320.1 49.1 316.267 33.46 308.6C17.82 300.933 6.93336 289.433 0.800028 274.1C0.186694 272.567 0.646694 271.34 2.18003 270.42L21.04 260.3C21.6534 259.993 22.42 259.84 23.34 259.84C24.26 259.84 24.8734 260.453 25.18 261.68C30.0867 272.413 38.06 280.693 49.1 286.52C60.4467 292.04 72.4067 294.8 84.98 294.8C99.3934 294.8 111.66 291.887 121.78 286.06C132.207 279.927 137.42 270.267 137.42 257.08C137.42 242.667 132.207 232.7 121.78 227.18C111.353 221.353 97.86 216.907 81.3 213.84C60.14 209.853 42.9667 203.107 29.78 193.6C16.9 184.093 10.46 170.6 10.46 153.12C10.46 139.32 14.2934 128.127 21.96 119.54C29.6267 110.953 39.44 104.667 51.4 100.68C63.6667 96.6933 76.24 94.7 89.12 94.7C105.987 94.7 120.4 97.46 132.36 102.98C144.627 108.5 154.44 115.86 161.8 125.06C162.72 126.287 162.567 127.667 161.34 129.2L146.16 143.46Z" fill="#E7FEF1"/>
<path d="M218.236 208.32C218.236 234.387 223.756 254.933 234.796 269.96C246.143 284.68 263.316 292.653 286.316 293.88C301.65 294.493 314.53 292.193 324.956 286.98C335.383 281.46 343.97 275.94 350.716 270.42C351.943 269.5 353.016 269.653 353.936 270.88L365.436 289.28C366.05 290.2 365.896 291.12 364.976 292.04C354.243 302.16 342.13 309.52 328.636 314.12C315.45 318.413 301.343 320.407 286.316 320.1C256.57 319.487 232.956 309.673 215.476 290.66C197.996 271.34 189.256 244.047 189.256 208.78C189.256 186.087 193.243 166.153 201.216 148.98C209.19 131.807 220.23 118.467 234.336 108.96C248.75 99.4533 265.616 94.7 284.936 94.7C310.696 94.7 331.09 103.287 346.116 120.46C361.143 137.327 368.656 160.48 368.656 189.92C368.656 191.453 368.656 193.14 368.656 194.98C368.656 196.513 368.503 198.967 368.196 202.34C367.583 205.407 366.05 206.94 363.596 206.94L218.236 207.86C218.236 207.86 218.236 208.013 218.236 208.32ZM220.076 183.48L338.296 183.02C339.83 164.007 335.383 148.827 324.956 137.48C314.836 125.827 301.036 120 283.556 120C266.69 120 252.736 125.52 241.696 136.56C230.656 147.6 223.45 163.24 220.076 183.48Z" fill="#E7FEF1"/>
<path d="M416.831 254.32V126.9H387.391C385.551 126.9 384.63 125.98 384.63 124.14V104.36C384.63 102.52 385.551 101.6 387.391 101.6H416.831V58.36C416.831 57.1333 417.29 56.3666 418.21 56.06L443.97 49.16C445.504 48.8533 446.271 49.62 446.271 51.46V101.6H512.971C514.81 101.6 515.73 102.52 515.73 104.36V124.14C515.73 125.98 514.81 126.9 512.971 126.9H446.271L446.73 255.24C446.73 270.88 450.104 281.307 456.85 286.52C463.904 291.427 472.184 293.88 481.69 293.88C486.904 293.88 493.191 292.96 500.551 291.12C508.217 289.28 514.504 286.98 519.411 284.22C521.25 283.3 522.477 283.76 523.091 285.6L529.531 305.38C530.144 306.913 529.684 307.987 528.151 308.6C519.564 312.587 510.364 315.5 500.551 317.34C491.044 319.18 482.457 320.1 474.79 320.1C458.23 320.1 444.431 314.887 433.391 304.46C422.35 294.033 416.831 277.32 416.831 254.32Z" fill="#E7FEF1"/>
<path d="M563.851 254.32V126.9H534.411C532.571 126.9 531.651 125.98 531.651 124.14V104.36C531.651 102.52 532.571 101.6 534.411 101.6H563.851V58.36C563.851 57.1333 564.311 56.3666 565.231 56.06L590.991 49.16C592.524 48.8533 593.291 49.62 593.291 51.46V101.6H659.991C661.831 101.6 662.751 102.52 662.751 104.36V124.14C662.751 125.98 661.831 126.9 659.991 126.9H593.291L593.751 255.24C593.751 270.88 597.124 281.307 603.871 286.52C610.924 291.427 619.204 293.88 628.711 293.88C633.924 293.88 640.211 292.96 647.571 291.12C655.237 289.28 661.524 286.98 666.431 284.22C668.271 283.3 669.497 283.76 670.111 285.6L676.551 305.38C677.164 306.913 676.704 307.987 675.171 308.6C666.584 312.587 657.384 315.5 647.571 317.34C638.064 319.18 629.477 320.1 621.811 320.1C605.251 320.1 591.451 314.887 580.411 304.46C569.371 294.033 563.851 277.32 563.851 254.32Z" fill="#E7FEF1"/>
<path d="M734.331 310.9C734.331 312.433 733.564 313.2 732.031 313.2H708.111C706.578 313.2 705.811 312.433 705.811 310.9V103.9C705.811 102.367 706.578 101.6 708.111 101.6H732.031C733.564 101.6 734.331 102.367 734.331 103.9V310.9ZM720.531 48.7C713.171 48.7 707.038 46.4 702.131 41.8C697.224 37.2 694.771 31.68 694.771 25.24C694.771 18.1866 697.224 12.36 702.131 7.75998C707.038 2.8533 713.171 0.399963 720.531 0.399963C727.584 0.399963 733.411 2.8533 738.011 7.75998C742.918 12.36 745.371 18.1866 745.371 25.24C745.371 31.68 742.918 37.2 738.011 41.8C733.411 46.4 727.584 48.7 720.531 48.7Z" fill="#E7FEF1"/>
<path d="M826.547 331.6C819.187 331.6 813.053 329.147 808.147 324.24C803.24 319.333 800.787 313.2 800.787 305.84C800.787 298.787 803.24 292.96 808.147 288.36C813.053 283.453 819.187 281 826.547 281C833.6 281 839.427 283.453 844.027 288.36C848.933 292.96 851.387 298.787 851.387 305.84C851.387 313.2 848.933 319.333 844.027 324.24C839.427 329.147 833.6 331.6 826.547 331.6Z" fill="#E7FEF1"/>
<path d="M946.625 310.9C946.625 312.433 945.858 313.2 944.325 313.2H920.405C918.871 313.2 918.105 312.433 918.105 310.9V103.9C918.105 102.367 918.871 101.6 920.405 101.6H939.725C941.258 101.6 942.025 102.367 942.025 103.9L945.705 129.66C953.371 119.847 963.185 111.567 975.145 104.82C987.411 98.0733 1001.52 94.7 1017.46 94.7C1048.13 94.7 1068.22 108.04 1077.72 134.72C1085.39 123.68 1095.51 114.327 1108.08 106.66C1120.66 98.6866 1135.68 94.7 1153.16 94.7C1174.94 94.7 1191.34 101.6 1202.38 115.4C1213.73 128.893 1219.4 148.827 1219.4 175.2V310.9C1219.4 312.433 1218.64 313.2 1217.1 313.2H1193.18C1191.65 313.2 1190.88 312.433 1190.88 310.9V176.12C1190.88 157.107 1187.05 143.153 1179.38 134.26C1172.02 125.367 1161.14 120.92 1146.72 120.92C1133.84 120.92 1121.73 124.6 1110.38 131.96C1099.34 139.32 1090.3 149.593 1083.24 162.78C1083.55 166.767 1083.7 170.907 1083.7 175.2V310.9C1083.7 312.433 1082.94 313.2 1081.4 313.2H1057.48C1055.95 313.2 1055.18 312.433 1055.18 310.9V176.12C1055.18 157.107 1051.35 143.153 1043.68 134.26C1036.32 125.367 1025.44 120.92 1011.02 120.92C997.838 120.92 985.418 124.753 973.765 132.42C962.418 140.087 953.371 150.973 946.625 165.08V310.9Z" fill="#E7FEF1"/>
<path d="M1289.93 208.32C1289.93 234.387 1295.45 254.933 1306.49 269.96C1317.84 284.68 1335.01 292.653 1358.01 293.88C1373.34 294.493 1386.22 292.193 1396.65 286.98C1407.08 281.46 1415.66 275.94 1422.41 270.42C1423.64 269.5 1424.71 269.653 1425.63 270.88L1437.13 289.28C1437.74 290.2 1437.59 291.12 1436.67 292.04C1425.94 302.16 1413.82 309.52 1400.33 314.12C1387.14 318.413 1373.04 320.407 1358.01 320.1C1328.26 319.487 1304.65 309.673 1287.17 290.66C1269.69 271.34 1260.95 244.047 1260.95 208.78C1260.95 186.087 1264.94 166.153 1272.91 148.98C1280.88 131.807 1291.92 118.467 1306.03 108.96C1320.44 99.4533 1337.31 94.7 1356.63 94.7C1382.39 94.7 1402.78 103.287 1417.81 120.46C1432.84 137.327 1440.35 160.48 1440.35 189.92C1440.35 191.453 1440.35 193.14 1440.35 194.98C1440.35 196.513 1440.2 198.967 1439.89 202.34C1439.28 205.407 1437.74 206.94 1435.29 206.94L1289.93 207.86C1289.93 207.86 1289.93 208.013 1289.93 208.32ZM1291.77 183.48L1409.99 183.02C1411.52 164.007 1407.08 148.827 1396.65 137.48C1386.53 125.827 1372.73 120 1355.25 120C1338.38 120 1324.43 125.52 1313.39 136.56C1302.35 147.6 1295.14 163.24 1291.77 183.48Z" fill="#E7FEF1"/>
</svg>
